<svg xmlns="http://www.w3.org/2000/svg" width="44" height="44" viewBox="0 0 44 44">
  <defs>
    <radialGradient id="ir" cx="0.5" cy="0.5" r="0.5">
      <stop offset="0" stop-color="#2a2a1c"/>
      <stop offset="0.3" stop-color="#5e5f3a"/>
      <stop offset="0.6" stop-color="#7b7f55"/>
      <stop offset="0.86" stop-color="#4b5134"/>
      <stop offset="1" stop-color="#151810"/>
    </radialGradient>
  </defs>
  <circle cx="22" cy="22" r="21" fill="url(#ir)"/>
  <line x1="30.50" y1="22.00" x2="39.00" y2="22.00" stroke="#1e2414" stroke-opacity="0.3" stroke-width="1.1"/>
<line x1="30.25" y1="24.06" x2="40.43" y2="26.60" stroke="#d8d3a8" stroke-opacity="0.18" stroke-width="1.1"/>
<line x1="29.99" y1="24.91" x2="39.85" y2="28.50" stroke="#1e2414" stroke-opacity="0.3" stroke-width="1.1"/>
<line x1="29.05" y1="26.75" x2="36.09" y2="31.51" stroke="#d8d3a8" stroke-opacity="0.18" stroke-width="1.1"/>
<line x1="28.51" y1="27.46" x2="36.55" y2="34.21" stroke="#1e2414" stroke-opacity="0.3" stroke-width="1.1"/>
<line x1="26.99" y1="28.88" x2="33.17" y2="37.37" stroke="#d8d3a8" stroke-opacity="0.18" stroke-width="1.1"/>
<line x1="26.25" y1="29.36" x2="30.50" y2="36.72" stroke="#1e2414" stroke-opacity="0.3" stroke-width="1.1"/>
<line x1="24.34" y1="30.17" x2="27.23" y2="40.26" stroke="#d8d3a8" stroke-opacity="0.18" stroke-width="1.1"/>
<line x1="23.48" y1="30.37" x2="25.30" y2="40.71" stroke="#1e2414" stroke-opacity="0.3" stroke-width="1.1"/>
<line x1="21.41" y1="30.48" x2="20.81" y2="38.96" stroke="#d8d3a8" stroke-opacity="0.18" stroke-width="1.1"/>
<line x1="20.52" y1="30.37" x2="18.70" y2="40.71" stroke="#1e2414" stroke-opacity="0.3" stroke-width="1.1"/>
<line x1="18.54" y1="29.76" x2="14.27" y2="39.36" stroke="#d8d3a8" stroke-opacity="0.18" stroke-width="1.1"/>
<line x1="17.75" y1="29.36" x2="13.50" y2="36.72" stroke="#1e2414" stroke-opacity="0.3" stroke-width="1.1"/>
<line x1="16.09" y1="28.11" x2="8.80" y2="35.66" stroke="#d8d3a8" stroke-opacity="0.18" stroke-width="1.1"/>
<line x1="15.49" y1="27.46" x2="7.45" y2="34.21" stroke="#1e2414" stroke-opacity="0.3" stroke-width="1.1"/>
<line x1="14.36" y1="25.72" x2="6.72" y2="29.45" stroke="#d8d3a8" stroke-opacity="0.18" stroke-width="1.1"/>
<line x1="14.01" y1="24.91" x2="4.15" y2="28.50" stroke="#1e2414" stroke-opacity="0.3" stroke-width="1.1"/>
<line x1="13.55" y1="22.89" x2="3.10" y2="23.98" stroke="#d8d3a8" stroke-opacity="0.18" stroke-width="1.1"/>
<line x1="13.50" y1="22.00" x2="5.00" y2="22.00" stroke="#1e2414" stroke-opacity="0.3" stroke-width="1.1"/>
<line x1="13.75" y1="19.94" x2="3.57" y2="17.40" stroke="#d8d3a8" stroke-opacity="0.18" stroke-width="1.1"/>
<line x1="14.01" y1="19.09" x2="4.15" y2="15.50" stroke="#1e2414" stroke-opacity="0.3" stroke-width="1.1"/>
<line x1="14.95" y1="17.25" x2="7.91" y2="12.49" stroke="#d8d3a8" stroke-opacity="0.18" stroke-width="1.1"/>
<line x1="15.49" y1="16.54" x2="7.45" y2="9.79" stroke="#1e2414" stroke-opacity="0.3" stroke-width="1.1"/>
<line x1="17.01" y1="15.12" x2="10.83" y2="6.63" stroke="#d8d3a8" stroke-opacity="0.18" stroke-width="1.1"/>
<line x1="17.75" y1="14.64" x2="13.50" y2="7.28" stroke="#1e2414" stroke-opacity="0.3" stroke-width="1.1"/>
<line x1="19.66" y1="13.83" x2="16.77" y2="3.74" stroke="#d8d3a8" stroke-opacity="0.18" stroke-width="1.1"/>
<line x1="20.52" y1="13.63" x2="18.70" y2="3.29" stroke="#1e2414" stroke-opacity="0.3" stroke-width="1.1"/>
<line x1="22.59" y1="13.52" x2="23.19" y2="5.04" stroke="#d8d3a8" stroke-opacity="0.18" stroke-width="1.1"/>
<line x1="23.48" y1="13.63" x2="25.30" y2="3.29" stroke="#1e2414" stroke-opacity="0.3" stroke-width="1.1"/>
<line x1="25.46" y1="14.24" x2="29.73" y2="4.64" stroke="#d8d3a8" stroke-opacity="0.18" stroke-width="1.1"/>
<line x1="26.25" y1="14.64" x2="30.50" y2="7.28" stroke="#1e2414" stroke-opacity="0.3" stroke-width="1.1"/>
<line x1="27.91" y1="15.89" x2="35.20" y2="8.34" stroke="#d8d3a8" stroke-opacity="0.18" stroke-width="1.1"/>
<line x1="28.51" y1="16.54" x2="36.55" y2="9.79" stroke="#1e2414" stroke-opacity="0.3" stroke-width="1.1"/>
<line x1="29.64" y1="18.28" x2="37.28" y2="14.55" stroke="#d8d3a8" stroke-opacity="0.18" stroke-width="1.1"/>
<line x1="29.99" y1="19.09" x2="39.85" y2="15.50" stroke="#1e2414" stroke-opacity="0.3" stroke-width="1.1"/>
<line x1="30.45" y1="21.11" x2="40.90" y2="20.02" stroke="#d8d3a8" stroke-opacity="0.18" stroke-width="1.1"/>
  <circle cx="22" cy="22" r="20.5" fill="none" stroke="#0d0f09" stroke-width="1.6" stroke-opacity="0.85"/>
</svg>
